<svg id="Layer_1" enable-background="new 0 0 513.422 513.422" height="512" viewBox="0 0 513.422 513.422" width="512" xmlns="http://www.w3.org/2000/svg"><g><path d="m388.742 350.65-30.567-15.49c11.82-18.919 18.029-40.566 18.029-63.152v-152.421c0-65.941-53.61-119.587-119.507-119.587-25.204 0-49.308 7.76-69.705 22.439-3.362 2.419-4.125 7.106-1.706 10.468 2.42 3.363 7.106 4.126 10.468 1.706 17.83-12.831 38.903-19.613 60.944-19.613 57.625 0 104.506 46.918 104.506 104.587v152.422c0 20.285-5.739 39.694-16.622 56.546 0 0-33.378-16.484-37.086-18.501-9.3-5.058-9.3-9.064-9.3-10.381v-52.684c26.153-14.569 43.893-42.502 43.893-74.514v-32.672c0-3.56-2.502-6.629-5.99-7.347-41.258-8.482-59.422-34.932-67.395-55.626-4.127-10.71-19.804-10.399-23.51.465-6.752 19.797-24.307 53.008-66.016 53.008-4.137 0-7.492 3.349-7.5 7.485l-.067 34.687c0 32.001 17.729 59.927 43.893 74.499v52.699c0 1.394 0 5.633-9.136 10.291-5.824 2.969-37.496 18.664-37.496 18.664-10.91-16.876-16.681-36.399-16.681-56.619v-152.422c0-20.961 6.171-41.181 17.845-58.473 2.318-3.433 1.414-8.095-2.019-10.412s-8.095-1.413-10.413 2.02c-13.354 19.78-20.413 42.901-20.413 66.865v152.422c0 22.494 6.235 44.247 18.066 63.191l-30.578 15.451c-19.335 10.109-31.347 29.938-31.347 51.749v101.885c0 9.697 15 9.697 15 0v-101.886c0-16.207 8.927-30.942 23.297-38.456l39.078-19.545v98.755c-10.128 3.196-17.493 12.676-17.493 23.847 0 13.785 11.215 25 25 25s25-11.215 25-25c0-11.176-7.372-20.661-17.507-23.852v-105.99l5.627-2.716 58.278 171.974c2.247 6.613 11.971 6.588 14.204 0l16.672-49.116c3.117-9.182-11.087-14.004-14.204-4.822l-9.564 28.177-26.485-78.155h53.013l-4.256 12.54c-3.117 9.182 11.088 14.004 14.204 4.82l29.196-85.358c1.993.996 3.811 1.902 5.315 2.649v58.833c-13.826 3.377-24.121 15.863-24.121 30.715v68.865c0 9.5 7.729 17.229 17.23 17.229h.217c4.142 0 7.5-3.357 7.5-7.5s-3.358-7.5-7.5-7.5h-.217c-1.229 0-2.23-1-2.23-2.229v-52.064h33.242v52.715c0 1.167-.912 2.145-2.076 2.225-4.132.287-7.25 3.869-6.963 8.001.274 3.956 3.568 6.982 7.474 6.981.174 0 .35-.006.526-.018 8.994-.624 16.039-8.174 16.039-17.189v-69.516c0-14.851-10.295-27.338-24.121-30.715v-51.387c.957.651 39.085 19.346 39.085 19.346 14.37 7.513 23.297 22.249 23.297 38.456v101.885c0 9.697 15 9.697 15 0v-101.885c.001-21.81-12.011-41.639-31.347-51.749zm-202.131-178.161.053-27.485c33.516-2.719 58.459-26.668 70.518-56.893 8.787 19.27 28.321 47.019 69.906 57.658v26.705c0 38.729-31.491 70.236-70.278 70.236-38.708.001-70.199-31.507-70.199-70.221zm-8.396 304.511c-5.514 0-10-4.486-10-10s4.486-10 10-10 10 4.486 10 10-4.486 10-10 10zm110.271-89.5h-63.334l-20.318-59.956c3.41-1.715 6.42-3.235 8.347-4.217 7.902-4.029 17.322-11.403 17.322-23.654v-46.153c8.313 2.708 17.176 4.191 26.386 4.191 9.179 0 18.016-1.478 26.306-4.177v46.139c0 9.449 5.765 17.376 17.134 23.559 2.03 1.104 5.101 2.697 8.54 4.452zm63.342 39.199v1.801h-33.242c-.473-9.679 6.49-18.422 16.621-18.422 9.165 0 16.621 7.456 16.621 16.621z"/><path d="m280.012 202.231c-2.929-2.928-7.678-2.928-10.606 0-6.998 6.998-18.384 6.998-25.382 0-6.858-6.855-17.463 3.749-10.606 10.607 6.423 6.423 14.86 9.634 23.297 9.634s16.875-3.211 23.297-9.634c2.929-2.929 2.929-7.677 0-10.607z"/></g></svg>