<?xml version="1.0" encoding="UTF-8" standalone="no"?>
<!-- Created with Inkscape (http://www.inkscape.org/) -->

<svg
   version="1.1"
   id="svg8229"
   width="682.66669"
   height="682.66669"
   viewBox="0 0 682.66669 682.66669"
   xmlns="http://www.w3.org/2000/svg"
   xmlns:svg="http://www.w3.org/2000/svg">
  <defs
     id="defs8233">
    <clipPath
       clipPathUnits="userSpaceOnUse"
       id="clipPath8243">
      <path
         d="M 0,512 H 512 V 0 H 0 Z"
         id="path8241" />
    </clipPath>
  </defs>
  <g
     id="g8235"
     transform="matrix(1.3333333,0,0,-1.3333333,0,682.66667)">
    <g
       id="g8237">
      <g
         id="g8239"
         clip-path="url(#clipPath8243)">
        <g
           id="g8245"
           transform="translate(392.8867,300.79)">
          <path
             d="m 0,0 c -5.065,-2.601 -11.079,-2.606 -16.15,-0.017 -21.503,10.987 -79.653,45.13 -96.805,100.431 L -150.713,128.61 -314.666,6.178 v -270.28 H 13.241 V 6.178 L 12.379,6.821 C 7.565,3.994 3.337,1.714 0,0"
             style="fill:#feca57;fill-opacity:1;fill-rule:nonzero;stroke:none"
             id="path8247" />
        </g>
        <g
           id="g8249"
           transform="translate(108.2207,329.3711)">
          <path
             d="m 0,0 -30,-22.403 v -270.28 H 0 Z"
             style="fill:#f4b537;fill-opacity:1;fill-rule:nonzero;stroke:none"
             id="path8251" />
        </g>
        <g
           id="g8253"
           transform="translate(442.9424,19.2148)">
          <path
             d="m 0,0 v 8.773 c 0,6.436 -5.265,11.701 -11.7,11.701 h -378.137 c -6.434,0 -11.7,-5.265 -11.7,-11.701 V 0 c 0,-6.435 5.266,-11.699 11.7,-11.699 H -11.7 C -5.265,-11.699 0,-6.435 0,0"
             style="fill:#e4eaf8;fill-opacity:1;fill-rule:nonzero;stroke:none"
             id="path8255" />
        </g>
        <g
           id="g8257"
           transform="translate(431.2426,29.0156)">
          <path
             d="m 0,0 h -378.137 c -4.091,0 -7.703,2.133 -9.796,5.336 -1.199,-1.835 -1.904,-4.02 -1.904,-6.363 v -8.774 c 0,-6.434 5.265,-11.699 11.7,-11.699 H 0 c 6.435,0 11.7,5.265 11.7,11.699 v 8.774 C 11.7,1.316 10.995,3.501 9.796,5.336 7.703,2.133 4.091,0 0,0"
             style="fill:#c7d2e5;fill-opacity:1;fill-rule:nonzero;stroke:none"
             id="path8259" />
        </g>
        <g
           id="g8261"
           transform="translate(210.6411,191.2568)">
          <path
             d="m 0,0 h -74.408 c -4.91,0 -8.89,-3.979 -8.89,-8.89 V -151.568 H 8.889 V -8.89 C 8.889,-3.979 4.909,0 0,0"
             style="fill:#ce7132;fill-opacity:1;fill-rule:nonzero;stroke:none"
             id="path8263" />
        </g>
        <g
           id="g8265"
           transform="translate(165.3262,191.2568)">
          <path
             d="m 0,0 h -29.093 c -4.91,0 -8.89,-3.979 -8.89,-8.89 V -151.568 H -8.89 V -8.89 C -8.89,-3.979 -4.91,0 0,0"
             style="fill:#bf6122;fill-opacity:1;fill-rule:nonzero;stroke:none"
             id="path8267" />
        </g>
        <g
           id="g8269"
           transform="translate(156.4365,411.9297)">
          <path
             d="M 0,0 V 63.712 H -78.215 V -62.955 Z"
             style="fill:#ce7132;fill-opacity:1;fill-rule:nonzero;stroke:none"
             id="path8271" />
        </g>
        <g
           id="g8273"
           transform="translate(108.2212,475.6416)">
          <path
             d="m 0,0 h -30 v -126.667 l 30,24.146 z"
             style="fill:#bf6122;fill-opacity:1;fill-rule:nonzero;stroke:none"
             id="path8275" />
        </g>
        <g
           id="g8277"
           transform="translate(276.0991,428.7842)">
          <path
             d="m 0,0 c -0.007,7.096 1.35,13.871 3.798,20.097 l -26.63,20.373 c -6.697,4.545 -15.49,4.545 -22.187,0 L -249.8,-114.314 c -9.028,-6.126 -11.378,-18.412 -5.252,-27.439 6.129,-9.031 18.415,-11.376 27.439,-5.252 L -33.925,-2.384 4.832,-31.576 C 1.774,-21.718 0.011,-11.191 0,0"
             style="fill:#576574;fill-opacity:1;fill-rule:nonzero;stroke:none"
             id="path8279" />
        </g>
        <g
           id="g8281"
           transform="translate(51.7246,287.0312)">
          <path
             d="m 0,0 c -6.126,9.027 -3.775,21.312 5.252,27.438 l 200.511,151.556 -4.221,3.229 c -6.696,4.545 -15.489,4.545 -22.186,0 L -25.425,27.438 C -34.453,21.312 -36.804,9.027 -30.678,0 c 6.13,-9.031 18.416,-11.376 27.439,-5.252 l 4.627,3.455 C 0.899,-1.229 0.431,-0.635 0,0"
             style="fill:#3e4b5a;fill-opacity:1;fill-rule:nonzero;stroke:none"
             id="path8283" />
        </g>
        <g
           id="g8285"
           transform="translate(458.0493,314.4697)">
          <path
             d="M 0,0 -19.632,15.084 C -31.831,4.88 -44.016,-3.121 -53.773,-8.853 l 31.586,-23.837 c 9.029,-6.127 21.313,-3.775 27.439,5.252 C 11.378,-18.411 9.027,-6.126 0,0"
             style="fill:#576574;fill-opacity:1;fill-rule:nonzero;stroke:none"
             id="path8287" />
        </g>
        <g
           id="g8289"
           transform="translate(439.4135,484.7422)">
          <path
             d="m 0,0 c -20.447,-0.021 -38.249,-11.247 -47.643,-27.855 l -0.005,0.002 c -4.031,-4.993 -10.216,-4.972 -14.228,-0.014 l -0.008,-0.002 c -9.431,16.588 -27.254,27.777 -47.698,27.757 -30.261,-0.031 -54.764,-24.586 -54.732,-54.846 0.073,-73.977 76.301,-119.066 101.637,-132.011 5.071,-2.59 11.085,-2.584 16.15,0.017 25.311,12.996 101.451,58.24 101.377,132.217 C 54.817,-24.477 30.261,0.029 0,0"
             style="fill:#ff6b6b;fill-opacity:1;fill-rule:nonzero;stroke:none"
             id="path8291" />
        </g>
        <g
           id="g8293"
           transform="translate(305.0991,429.7842)">
          <path
             d="M 0,0 C -0.026,25.082 16.811,46.229 39.805,52.755 35.016,54.118 29.961,54.851 24.732,54.846 -5.529,54.815 -30.031,30.26 -30,0 c 0.074,-73.978 76.301,-119.065 101.638,-132.011 5.07,-2.59 11.084,-2.584 16.15,0.017 2,1.027 4.32,2.258 6.893,3.686 C 64.646,-111.702 0.068,-68.088 0,0"
             style="fill:#ee5253;fill-opacity:1;fill-rule:nonzero;stroke:none"
             id="path8295" />
        </g>
        <g
           id="g8297"
           transform="translate(168.2612,504.4844)">
          <path
             d="m 0,0 h -101.865 c -6.435,0 -11.699,-5.265 -11.699,-11.699 v -8.774 c 0,-6.435 5.264,-11.7 11.699,-11.7 H 0 c 6.435,0 11.7,5.265 11.7,11.7 v 8.774 C 11.7,-5.265 6.435,0 0,0"
             style="fill:#bf6122;fill-opacity:1;fill-rule:nonzero;stroke:none"
             id="path8299" />
        </g>
        <g
           id="g8301"
           transform="translate(168.2612,495.2451)">
          <path
             d="m 0,0 h -101.865 c -3.776,0 -7.139,1.821 -9.282,4.62 -1.509,-1.971 -2.417,-4.422 -2.417,-7.08 v -8.773 c 0,-6.436 5.264,-11.701 11.699,-11.701 H 0 c 6.435,0 11.7,5.265 11.7,11.701 V -2.46 C 11.7,0.198 10.791,2.649 9.282,4.62 7.139,1.821 3.776,0 0,0"
             style="fill:#b2581b;fill-opacity:1;fill-rule:nonzero;stroke:none"
             id="path8303" />
        </g>
        <g
           id="g8305"
           transform="translate(352.5429,226.8144)">
          <path
             d="m 0,0 h -40.826 v -65.519 h 52.02 v 54.326 C 11.194,-5.012 6.183,0 0,0"
             style="fill:#8ac2ff;fill-opacity:1;fill-rule:nonzero;stroke:none"
             id="path8307" />
        </g>
        <g
           id="g8309"
           transform="translate(311.7173,226.8144)">
          <path
             d="M 0,0 H -40.826 C -47.008,0 -52.02,-5.012 -52.02,-11.193 V -65.519 H 0 Z"
             style="fill:#54a0ff;fill-opacity:1;fill-rule:nonzero;stroke:none"
             id="path8311" />
        </g>
        <g
           id="g8313"
           transform="translate(300.8916,226.8144)">
          <path
             d="m 0,0 h -30 c -6.182,0 -11.194,-5.012 -11.194,-11.193 v -54.326 h 30 v 54.326 C -11.194,-5.012 -6.182,0 0,0"
             style="fill:#338def;fill-opacity:1;fill-rule:nonzero;stroke:none"
             id="path8315" />
        </g>
        <g
           id="g8317"
           transform="translate(311.7173,95.7773)">
          <path
             d="M 0,0 H 40.826 C 47.008,0 52.02,5.012 52.02,11.194 V 65.519 H 0 Z"
             style="fill:#54a0ff;fill-opacity:1;fill-rule:nonzero;stroke:none"
             id="path8319" />
        </g>
        <g
           id="g8321"
           transform="translate(259.6977,161.2959)">
          <path
             d="m 0,0 v -54.324 c 0,-6.183 5.012,-11.195 11.194,-11.195 H 52.02 V 0 Z"
             style="fill:#8ac2ff;fill-opacity:1;fill-rule:nonzero;stroke:none"
             id="path8323" />
        </g>
        <g
           id="g8325"
           transform="translate(289.6977,106.9717)">
          <path
             d="M 0,0 V 54.324 H -30 V 0 c 0,-6.183 5.012,-11.194 11.194,-11.194 h 30 C 5.012,-11.194 0,-6.183 0,0"
             style="fill:#54a0ff;fill-opacity:1;fill-rule:nonzero;stroke:none"
             id="path8327" />
        </g>
        <g
           id="g8329"
           transform="translate(180.0107,484.0117)">
          <path
             d="m 0,0 v 8.773 c 0,6.435 -5.265,11.7 -11.7,11.7 h -101.864 c -6.436,0 -11.7,-5.265 -11.7,-11.7 V 0 c 0,-6.436 5.264,-11.7 11.7,-11.7 H -11.7 C -5.265,-11.7 0,-6.436 0,0 Z"
             style="fill:none;stroke:#000000;stroke-width:15;stroke-linecap:round;stroke-linejoin:round;stroke-miterlimit:10;stroke-dasharray:none;stroke-opacity:1"
             id="path8331" />
        </g>
        <g
           id="g8333"
           transform="translate(210.6909,191.2568)">
          <path
             d="m 0,0 h -74.408 c -4.91,0 -8.89,-3.979 -8.89,-8.89 V -151.568 H 8.889 V -8.89 C 8.889,-3.979 4.91,0 0,0 Z"
             style="fill:none;stroke:#000000;stroke-width:15;stroke-linecap:round;stroke-linejoin:round;stroke-miterlimit:10;stroke-dasharray:none;stroke-opacity:1"
             id="path8335" />
        </g>
        <g
           id="g8337"
           transform="translate(127.3931,226.8144)">
          <path
             d="M 0,0 H 92.187"
             style="fill:none;stroke:#000000;stroke-width:15;stroke-linecap:round;stroke-linejoin:round;stroke-miterlimit:10;stroke-dasharray:none;stroke-opacity:1"
             id="path8339" />
        </g>
        <g
           id="g8341"
           transform="translate(352.5932,226.8144)">
          <path
             d="m 0,0 h -81.651 c -6.183,0 -11.195,-5.012 -11.195,-11.194 v -108.649 c 0,-6.182 5.012,-11.194 11.195,-11.194 H 0 c 6.182,0 11.194,5.012 11.194,11.194 V -11.194 C 11.194,-5.012 6.182,0 0,0 Z"
             style="fill:none;stroke:#000000;stroke-width:15;stroke-linecap:round;stroke-linejoin:round;stroke-miterlimit:10;stroke-dasharray:none;stroke-opacity:1"
             id="path8343" />
        </g>
        <g
           id="g8345"
           transform="translate(311.7675,226.8144)">
          <path
             d="M 0,0 H -40.826 C -47.008,0 -52.02,-5.012 -52.02,-11.194 v -108.649 c 0,-6.182 5.012,-11.194 11.194,-11.194 H 0 Z"
             style="fill:none;stroke:#000000;stroke-width:15;stroke-linecap:round;stroke-linejoin:round;stroke-miterlimit:10;stroke-dasharray:none;stroke-opacity:1"
             id="path8347" />
        </g>
        <g
           id="g8349"
           transform="translate(259.7475,161.2959)">
          <path
             d="m 0,0 v -54.324 c 0,-6.183 5.012,-11.195 11.194,-11.195 h 81.652 c 6.182,0 11.194,5.012 11.194,11.195 V 0 Z"
             style="fill:none;stroke:#000000;stroke-width:15;stroke-linecap:round;stroke-linejoin:round;stroke-miterlimit:10;stroke-dasharray:none;stroke-opacity:1"
             id="path8351" />
        </g>
        <g
           id="g8353"
           transform="translate(156.4863,412.834)">
          <path
             d="M 0,0 V 59.829 H -78.215 V -59.119 Z"
             style="fill:none;stroke:#000000;stroke-width:15;stroke-linecap:round;stroke-linejoin:round;stroke-miterlimit:10;stroke-dasharray:none;stroke-opacity:1"
             id="path8355" />
        </g>
        <g
           id="g8357"
           transform="translate(275.1489,429.7842)">
          <path
             d="m 0,0 c -0.007,7.096 1.35,13.871 3.798,20.097 l -25.63,19.373 c -6.696,4.545 -15.489,4.545 -22.186,0 l -204.781,-154.784 c -9.028,-6.126 -11.379,-18.412 -5.253,-27.439 6.129,-9.031 18.416,-11.376 27.439,-5.252 L -32.925,-3.384 4.832,-31.576 C 1.774,-21.718 0.011,-11.191 0,0 Z"
             style="fill:none;stroke:#000000;stroke-width:15;stroke-linecap:round;stroke-linejoin:round;stroke-miterlimit:10;stroke-dasharray:none;stroke-opacity:1"
             id="path8359" />
        </g>
        <g
           id="g8361"
           transform="translate(458.0991,314.4697)">
          <path
             d="M 0,0 -18.632,14.084 C -30.831,3.88 -43.015,-4.121 -52.773,-9.853 l 30.586,-22.837 c 9.029,-6.127 21.313,-3.775 27.439,5.252 C 11.379,-18.411 9.028,-6.126 0,0 Z"
             style="fill:none;stroke:#000000;stroke-width:15;stroke-linecap:round;stroke-linejoin:round;stroke-miterlimit:10;stroke-dasharray:none;stroke-opacity:1"
             id="path8363" />
        </g>
        <g
           id="g8365"
           transform="translate(439.4633,484.7422)">
          <path
             d="m 0,0 c -20.447,-0.021 -38.249,-11.247 -47.643,-27.855 l -0.004,0.002 c -4.032,-4.993 -10.217,-4.972 -14.229,-0.014 l -0.007,-0.002 c -9.432,16.588 -27.255,27.777 -47.699,27.757 -30.261,-0.031 -54.763,-24.586 -54.732,-54.846 0.073,-73.977 76.301,-119.066 101.637,-132.011 5.071,-2.59 11.085,-2.584 16.15,0.017 25.311,12.996 101.451,58.24 101.378,132.217 C 54.817,-24.477 30.261,0.029 0,0 Z"
             style="fill:none;stroke:#000000;stroke-width:15;stroke-linecap:round;stroke-linejoin:round;stroke-miterlimit:10;stroke-dasharray:none;stroke-opacity:1"
             id="path8367" />
        </g>
        <g
           id="g8369"
           transform="translate(259.7241,7.5156)">
          <path
             d="m 0,0 h 171.569 c 6.434,0 11.7,5.265 11.7,11.699 v 8.774 c 0,6.435 -5.266,11.7 -11.7,11.7 h -378.138 c -6.434,0 -11.7,-5.265 -11.7,-11.7 v -8.774 c 0,-6.434 5.266,-11.699 11.7,-11.699 L -35,0"
             style="fill:none;stroke:#000000;stroke-width:15;stroke-linecap:round;stroke-linejoin:round;stroke-miterlimit:10;stroke-dasharray:none;stroke-opacity:1"
             id="path8371" />
        </g>
        <g
           id="g8373"
           transform="translate(406.1772,176.5283)">
          <path
             d="m 0,0 v 127.439 l -0.861,0.644 c -4.815,-2.827 -9.042,-5.107 -12.38,-6.821 -5.065,-2.601 -11.079,-2.607 -16.15,-0.017 -21.503,10.986 -79.652,45.13 -96.804,100.432 l -37.758,28.195 -163.953,-122.433 V -136.84 L 0,-136.84 V -35"
             style="fill:none;stroke:#000000;stroke-width:15;stroke-linecap:round;stroke-linejoin:round;stroke-miterlimit:10;stroke-dasharray:none;stroke-opacity:1"
             id="path8375" />
        </g>
      </g>
    </g>
  </g>
</svg>
