<svg id="Layer_1" data-name="Layer 1" xmlns="http://www.w3.org/2000/svg" viewBox="580 475 760 130">
  <path d="M659.1,493.83a39.46,39.46,0,0,0-14.61-13.35,41.45,41.45,0,0,0-20-5H580.67l.18,127.66h11.21V549.08h32.46a41.39,41.39,0,0,0,20-5,39.09,39.09,0,0,0,14.61-13.46,33.85,33.85,0,0,0,0-36.81Zm-34.58,43.23H592.06l-.16-49.74h32.62A31.4,31.4,0,0,1,639,490.71a27.61,27.61,0,0,1,10.49,9.09,21.87,21.87,0,0,1,3.84,12.49,21.52,21.52,0,0,1-3.84,12.29,27.62,27.62,0,0,1-10.49,9.1A31.52,31.52,0,0,1,624.52,537.06Z" stroke="black" stroke-width="1"/>
  <polygon points="897.13 591.53 897.13 603.16 819.27 603.16 819.27 475.5 830.49 475.5 830.49 591.53 897.13 591.53" stroke="black" stroke-width="1"/>
  <polygon points="700.25 475.5 780.11 475.5 780.11 487.32 711.46 487.32 711.46 533.42 764.95 533.42 764.95 545.24 711.46 545.24 711.46 591.14 780.11 591.14 780.11 603.16 700.25 603.16 700.25 475.5" stroke="black" stroke-width="1"/>
  <rect x="1192.42" y="475.5" width="11.21" height="127.66" stroke="black" stroke-width="1"/>
  <polygon points="1071.93 475.5 1151.8 475.5 1151.8 487.32 1083.14 487.32 1083.14 533.42 1136.83 533.42 1136.83 545.43 1083.14 545.43 1083.14 603.16 1071.93 603.16 1071.93 475.5" stroke="black" stroke-width="1"/>
  <polygon points="1295.95 539.33 1339.34 603.16 1325.66 603.16 1289.21 549.29 1252.78 603.16 1239.11 603.16 1282.47 539.33 1239.11 475.5 1252.78 475.5 1289.21 529.36 1325.66 475.5 1339.34 475.5 1295.95 539.33" stroke="black" stroke-width="1"/>
  <polygon points="972.97 545.49 970.54 539.76 970.54 539.75 943.27 475.47 921 475.47 959.31 566.37 961.74 572.13 961.75 572.15 972.98 545.52 972.97 545.49" stroke="black" stroke-width="1"/>
  <polygon points="1012.22 475.47 966.6 583.65 975.4 604.53 1029.8 475.47 1012.22 475.47" stroke="black" stroke-width="1"/>
  <polygon points="1002.5 475.47 972.97 545.49 961.74 572.13 959.31 566.37 970.54 539.76 970.54 539.75 997.65 475.47 1002.5 475.47" stroke="black" stroke-width="1"/>
</svg>