<?xml version="1.0" encoding="UTF-8" standalone="no"?>
<!-- Created with Inkscape (http://www.inkscape.org/) -->

<svg
   version="1.1"
   id="svg6162"
   xml:space="preserve"
   width="682.66669"
   height="682.66669"
   viewBox="0 0 682.66669 682.66669"
   xmlns="http://www.w3.org/2000/svg"
   xmlns:svg="http://www.w3.org/2000/svg"><defs
     id="defs6166"><clipPath
       clipPathUnits="userSpaceOnUse"
       id="clipPath6176"><path
         d="M 0,512 H 512 V 0 H 0 Z"
         id="path6174" /></clipPath></defs><g
     id="g6168"
     transform="matrix(1.3333333,0,0,-1.3333333,0,682.66667)"><g
       id="g6170"><g
         id="g6172"
         clip-path="url(#clipPath6176)"><g
           id="g6178"
           transform="translate(10.5,365.3584)"><path
             d="m 0,0 c 0.012,-1.83 0.344,-3.653 0.993,-5.384 l 8.366,-22.975 c 2.663,-7.104 10.051,-11.261 17.506,-9.851 l 83.277,16.504 c 6.364,1.204 11.322,6.214 12.46,12.59 l 2.878,2.933 5.667,31.774 -4.618,2.556 L 2.132,3.979 Z"
             style="fill:#ffa442;fill-opacity:1;fill-rule:nonzero;stroke:none"
             id="path6180" /></g><g
           id="g6182"
           transform="translate(35.3652,325.1479)"><path
             d="m 0,0 3.96,0.749 83.316,15.755 c 6.365,1.204 11.323,6.214 12.46,12.59 l 0.583,3.272 0.296,1.661 L -0.01,14.998 c -2.388,-0.452 -4.757,0.881 -5.61,3.158 l -6.252,16.67 c -0.995,2.653 -1.258,5.457 -0.748,8.233 l -3.315,3.179 -9.972,-2.654 -1.956,-3.441 c 0.025,-1.834 0.347,-3.596 0.991,-5.317 L -17.506,9.851 C -15.018,2.891 -7.243,-1.489 0,0"
             style="fill:#ff8a3c;fill-opacity:1;fill-rule:nonzero;stroke:none"
             id="path6184" /></g><g
           id="g6186"
           transform="translate(375.3525,390.9497)"><path
             d="m 0,0 4.546,-33.708 c 1.138,-6.375 6.096,-11.386 12.46,-12.589 l 79.876,-15.908 c 7.454,-1.41 17.243,0.151 19.906,7.254 l 2.645,0.717 8.721,23.258 c 0.642,1.713 0.975,3.515 0.992,5.324 l -2.902,4.311 L -0.469,3.133 Z"
             style="fill:#ffa442;fill-opacity:1;fill-rule:nonzero;stroke:none"
             id="path6188" /></g><g
           id="g6190"
           transform="translate(394.9209,355.6006)"><path
             d="m 0,0 c -2.025,0.383 -3.607,1.969 -3.986,3.994 l -3.665,19.607 c -0.608,3.402 -1.233,6.378 -2.181,8.93 l -3.195,3.084 -10.322,1.501 -1.219,-1.767 6.098,-34.197 c 0.558,-7.191 5.576,-13.868 12.908,-15.1 l 87.276,-16.505 c 7.455,-1.409 14.842,2.748 17.506,9.851 l 0.644,1.717 z"
             style="fill:#ff8a3c;fill-opacity:1;fill-rule:nonzero;stroke:none"
             id="path6192" /></g><g
           id="g6194"
           transform="translate(372.085,392.7163)"><path
             d="m 0,0 c -0.885,4.961 -6.932,6.807 -11.972,6.807 h -2.921 l -2.32,3 -67.487,0.081 -1.853,-3.081 h -59.064 l -2.234,3 -67.411,-0.912 -2.015,-2.088 h -2.921 c -5.04,0 -9.355,-3.613 -10.239,-8.574 l -125.661,-24.035 c -0.007,1.284 -0.575,12.314 -0.263,13.575 l 7.659,28.34 c 2.96,11.986 8.99,36.512 19.691,41.905 3.309,1.667 6.849,2.817 10.593,3.562 l 62.404,12.424 c 46.078,9.175 92.947,13.795 139.929,13.795 46.982,0 93.851,-4.62 139.929,-13.795 L 86.248,61.58 c 15.853,-3.156 28.45,-15.192 32.324,-30.884 l 13.388,-54.221 c 0.316,-1.281 0.467,-2.589 0.454,-3.894 L 13.004,-4.585 Z"
             style="fill:#ffbf54;fill-opacity:1;fill-rule:nonzero;stroke:none"
             id="path6196" /></g><g
           id="g6198"
           transform="translate(22.7451,368.2065)"><path
             d="m 0,0 20.329,82.527 c 0,0 -16.372,-7.053 -21.731,-27.321 L -14.79,0.985 c -0.322,-1.305 -0.473,-2.571 -0.453,-3.901 z"
             style="fill:#ffa442;fill-opacity:1;fill-rule:nonzero;stroke:none"
             id="path6200" /></g><g
           id="g6202"
           transform="translate(385.0908,388.1318)"><path
             d="m 0,0 c -2.814,7.577 -8.477,11.392 -24.978,11.392 5.041,0 9.355,-3.613 10.24,-8.574 z"
             style="fill:#ffa442;fill-opacity:1;fill-rule:nonzero;stroke:none"
             id="path6204" /></g><g
           id="g6206"
           transform="translate(211.4678,433.877)"><path
             d="m 0,0 h -41.66 c -8.284,0 -15,-6.715 -15,-15 V -34.354 H 15 V -15 C 15,-6.715 8.284,0 0,0"
             style="fill:#ffa442;fill-opacity:1;fill-rule:nonzero;stroke:none"
             id="path6208" /></g><g
           id="g6210"
           transform="translate(342.1924,433.877)"><path
             d="m 0,0 h -41.66 c -8.284,0 -15,-6.715 -15,-15 V -34.354 H 15 V -15 C 15,-6.715 8.284,0 0,0"
             style="fill:#ffa442;fill-opacity:1;fill-rule:nonzero;stroke:none"
             id="path6212" /></g><g
           id="g6214"
           transform="translate(333.873,418.877)"><path
             d="m 0,0 h -18.471 l -4.679,-2 c -4.596,0 -8.321,-3.725 -8.321,-8.32 l 1,-32.553 c 0,-4.595 -6.724,-8.32 -11.32,-8.32 h -72.164 c -4.596,0 -8.32,3.725 -8.32,8.32 V -8.32 c 0,4.595 -3.725,8.32 -8.321,8.32 h -18.469 l -4.681,-2 c -4.595,0 -8.319,-3.725 -8.319,-8.32 V -94.028 H 5.319 l 3,15 V -8.32 C 8.319,-3.725 4.595,0 0,0"
             style="fill:#ffbf54;fill-opacity:1;fill-rule:nonzero;stroke:none"
             id="path6216" /></g><g
           id="g6218"
           transform="translate(315.4023,377.6846)"><path
             d="m 0,0 v 41.192 h -6.68 c -4.595,0 -8.32,-3.724 -8.32,-8.319 V -1.681 C -15.001,-2.233 -15.059,-5.2 -17.46,-7.584 -19.834,-9.939 -22.757,-10 -23.32,-10 H -10 c 5.522,0 10,4.477 10,10"
             style="fill:#ffa442;fill-opacity:1;fill-rule:nonzero;stroke:none"
             id="path6220" /></g><g
           id="g6222"
           transform="translate(184.8076,344.8486)"><path
             d="m 0,0 v 74.028 h -6.681 c -4.594,0 -8.319,-3.725 -8.319,-8.32 V -23 H 157.385 V -5 H 5 C 2.238,-5 0,-2.761 0,0"
             style="fill:#ffa442;fill-opacity:1;fill-rule:nonzero;stroke:none"
             id="path6224" /></g><g
           id="g6226"
           transform="translate(449.3086,122.5068)"><path
             d="m 0,0 v -75.393 c 0,-0.211 -0.014,-0.42 -0.021,-0.629 -0.332,-8.34 -19.952,-12.719 -28.373,-12.719 l -340.594,-0.281 c -8.632,0 -15.629,6.997 -15.629,15.629 l 1,73.393 c 0,2.017 0.389,4.015 1.149,5.883 l 73.394,184.099 c 2.393,5.893 8.119,9.747 14.479,9.747 l 3.947,2.613 h 199.16 c 6.36,0 12.086,-3.854 14.479,-9.746 L -1.149,5.883 C -0.39,4.015 0,2.017 0,0"
             style="fill:#ffbf54;fill-opacity:1;fill-rule:nonzero;stroke:none"
             id="path6228" /></g><g
           id="g6230"
           transform="translate(77.6914,51.4849)"><path
             d="m 0,0 v 70.112 c 0,0.637 0.121,1.267 0.357,1.858 l 80.612,201.394 h -4.481 c -6.359,0 -12.086,-3.854 -14.479,-9.746 L -13.851,76.905 C -14.61,75.037 -15,73.039 -15,71.022 V -4.371 C -15.117,-12.787 -7.787,-20.117 0.629,-20 h 355.359 c 8.42,0 15.275,6.662 15.608,15 H 5 C 2.238,-5 0,-2.761 0,0"
             style="fill:#ffa442;fill-opacity:1;fill-rule:nonzero;stroke:none"
             id="path6232" /></g><g
           id="g6234"
           transform="translate(365.7002,178.167)"><path
             d="m 0,0 c 0,60.585 -49.114,109.7 -109.7,109.7 -26.473,0 -50.756,-9.378 -69.708,-24.992 C -203.829,64.588 -217.4,15.815 -217.4,0 c 0,-60.586 47.114,-107.7 107.7,-107.7 7.945,0 64.557,13.576 84.679,37.956 C -9.372,-50.781 0,-26.506 0,0"
             style="fill:#f7f3f1;fill-opacity:1;fill-rule:nonzero;stroke:none"
             id="path6236" /></g><g
           id="g6238"
           transform="translate(271,83.4668)"><path
             d="m 0,0 c -60.586,0 -109.7,49.114 -109.7,109.7 0,26.473 9.378,50.756 24.992,69.708 C -109.129,159.288 -124.7,128.812 -124.7,94.7 -124.7,34.114 -75.586,-15 -15,-15 19.112,-15 49.559,0.535 69.679,24.957 50.727,9.342 26.473,0 0,0"
             style="fill:#eae2df;fill-opacity:1;fill-rule:nonzero;stroke:none"
             id="path6240" /></g><g
           id="g6242"
           transform="translate(277,178.167)"><path
             d="m 0,0 c 0,11.598 -9.402,21 -21,21 -2.813,0 -5.496,-0.559 -7.949,-1.563 C -36.604,16.303 -40.852,0.574 -40.852,0 c 0,-11.598 8.254,-19.852 19.852,-19.852 2.028,0 16.304,4.247 19.438,11.903 C -0.559,-5.497 0,-2.814 0,0"
             style="fill:#eae2df;fill-opacity:1;fill-rule:nonzero;stroke:none"
             id="path6244" /></g><g
           id="g6246"
           transform="translate(267.4863,168.6528)"><path
             d="m 0,0 c -11.599,0 -21,9.402 -21,21 0,2.814 0.561,5.499 1.564,7.952 -7.655,-3.135 -13.05,-10.654 -13.05,-19.438 0,-11.598 9.402,-21 21,-21 8.784,0 16.303,5.396 19.437,13.051 C 5.499,0.561 2.813,0 0,0"
             style="fill:#ddd3ce;fill-opacity:1;fill-rule:nonzero;stroke:none"
             id="path6248" /></g><g
           id="g6250"
           transform="translate(273.5,241.897)"><path
             d="m 0,0 c 0,9.665 -7.835,17.5 -17.5,17.5 -1.693,0 -3.312,-0.243 -4.86,-0.691 C -29.651,14.696 -33.804,1.854 -33.804,0 c 0,-9.665 6.639,-16.303 16.304,-16.303 1.96,0 14.658,4.153 16.797,11.402 C -0.239,-3.328 0,-1.723 0,0"
             style="fill:#eae2df;fill-opacity:1;fill-rule:nonzero;stroke:none"
             id="path6252" /></g><g
           id="g6254"
           transform="translate(267.9648,236.3618)"><path
             d="m 0,0 c -9.665,0 -17.5,7.835 -17.5,17.5 0,1.682 0.231,3.305 0.675,4.844 -7.308,-2.102 -12.64,-8.825 -12.64,-16.809 0,-9.664 7.835,-17.5 17.5,-17.5 7.984,0 14.694,5.292 16.797,12.599 C 3.292,0.191 1.682,0 0,0"
             style="fill:#ddd3ce;fill-opacity:1;fill-rule:nonzero;stroke:none"
             id="path6256" /></g><g
           id="g6258"
           transform="translate(273.5,114.4365)"><path
             d="m 0,0 c 0,9.665 -7.835,17.5 -17.5,17.5 -1.693,0 -3.312,-0.243 -4.86,-0.691 C -29.651,14.696 -33.804,1.854 -33.804,0 c 0,-9.665 6.639,-16.304 16.304,-16.304 1.96,0 14.658,4.154 16.797,11.403 C -0.239,-3.329 0,-1.723 0,0"
             style="fill:#eae2df;fill-opacity:1;fill-rule:nonzero;stroke:none"
             id="path6260" /></g><g
           id="g6262"
           transform="translate(267.9648,108.9009)"><path
             d="m 0,0 c -9.665,0 -17.5,7.835 -17.5,17.5 0,1.682 0.231,3.305 0.675,4.844 -7.308,-2.102 -12.64,-8.825 -12.64,-16.808 0,-9.665 7.835,-17.5 17.5,-17.5 7.984,0 14.694,5.291 16.797,12.598 C 3.292,0.191 1.682,0 0,0"
             style="fill:#ddd3ce;fill-opacity:1;fill-rule:nonzero;stroke:none"
             id="path6264" /></g><g
           id="g6266"
           transform="translate(328.6924,210.0317)"><path
             d="m 0,0 c 0,9.665 -7.835,17.5 -17.5,17.5 -1.693,0 -3.312,-0.243 -4.86,-0.691 C -29.651,14.696 -33.804,1.854 -33.804,0 c 0,-9.665 6.639,-16.303 16.304,-16.303 1.96,0 14.658,4.153 16.797,11.402 C -0.239,-3.328 0,-1.723 0,0"
             style="fill:#eae2df;fill-opacity:1;fill-rule:nonzero;stroke:none"
             id="path6268" /></g><g
           id="g6270"
           transform="translate(323.1562,204.4966)"><path
             d="m 0,0 c -9.665,0 -17.5,7.835 -17.5,17.5 0,1.682 0.232,3.305 0.676,4.844 -7.308,-2.102 -12.64,-8.825 -12.64,-16.809 0,-9.664 7.835,-17.499 17.5,-17.499 7.983,0 14.694,5.291 16.797,12.598 C 3.293,0.191 1.682,0 0,0"
             style="fill:#ddd3ce;fill-opacity:1;fill-rule:nonzero;stroke:none"
             id="path6272" /></g><g
           id="g6274"
           transform="translate(218.3076,210.0317)"><path
             d="m 0,0 c 0,9.665 -7.835,17.5 -17.5,17.5 -1.693,0 -3.312,-0.243 -4.86,-0.691 C -29.651,14.696 -33.804,1.854 -33.804,0 c 0,-9.665 6.639,-16.303 16.304,-16.303 1.96,0 14.658,4.153 16.797,11.402 C -0.239,-3.328 0,-1.723 0,0"
             style="fill:#eae2df;fill-opacity:1;fill-rule:nonzero;stroke:none"
             id="path6276" /></g><g
           id="g6278"
           transform="translate(212.7725,204.4966)"><path
             d="m 0,0 c -9.665,0 -17.5,7.835 -17.5,17.5 0,1.682 0.232,3.305 0.675,4.844 -7.307,-2.102 -12.64,-8.825 -12.64,-16.809 0,-9.664 7.835,-17.499 17.5,-17.499 7.984,0 14.695,5.291 16.797,12.598 C 3.293,0.191 1.682,0 0,0"
             style="fill:#ddd3ce;fill-opacity:1;fill-rule:nonzero;stroke:none"
             id="path6280" /></g><g
           id="g6282"
           transform="translate(328.6924,146.3042)"><path
             d="m 0,0 c 0,9.665 -7.835,17.5 -17.5,17.5 -1.693,0 -3.312,-0.243 -4.86,-0.692 C -29.651,14.696 -33.804,1.854 -33.804,0 c 0,-9.665 6.639,-16.304 16.304,-16.304 1.96,0 14.658,4.154 16.797,11.403 C -0.239,-3.329 0,-1.723 0,0"
             style="fill:#eae2df;fill-opacity:1;fill-rule:nonzero;stroke:none"
             id="path6284" /></g><g
           id="g6286"
           transform="translate(323.1562,140.7686)"><path
             d="m 0,0 c -9.665,0 -17.5,7.835 -17.5,17.5 0,1.682 0.232,3.305 0.676,4.844 -7.308,-2.102 -12.64,-8.825 -12.64,-16.808 0,-9.665 7.835,-17.5 17.5,-17.5 7.983,0 14.694,5.291 16.797,12.598 C 3.293,0.191 1.682,0 0,0"
             style="fill:#ddd3ce;fill-opacity:1;fill-rule:nonzero;stroke:none"
             id="path6288" /></g><g
           id="g6290"
           transform="translate(218.3076,146.3042)"><path
             d="m 0,0 c 0,9.665 -7.835,17.5 -17.5,17.5 -1.693,0 -3.312,-0.243 -4.86,-0.692 C -29.651,14.696 -33.804,1.854 -33.804,0 c 0,-9.665 6.639,-16.304 16.304,-16.304 1.96,0 14.658,4.154 16.797,11.403 C -0.239,-3.329 0,-1.723 0,0"
             style="fill:#eae2df;fill-opacity:1;fill-rule:nonzero;stroke:none"
             id="path6292" /></g><g
           id="g6294"
           transform="translate(212.7725,140.7686)"><path
             d="m 0,0 c -9.665,0 -17.5,7.835 -17.5,17.5 0,1.682 0.232,3.305 0.675,4.844 -7.307,-2.102 -12.64,-8.825 -12.64,-16.808 0,-9.665 7.835,-17.5 17.5,-17.5 7.984,0 14.695,5.291 16.797,12.598 C 3.293,0.191 1.682,0 0,0"
             style="fill:#ddd3ce;fill-opacity:1;fill-rule:nonzero;stroke:none"
             id="path6296" /></g><g
           id="g6298"
           transform="translate(89.0791,461.3472)"><path
             d="m 0,0 -35.412,-7.051 c -15.853,-3.156 -28.45,-15.192 -32.324,-30.884 l -13.388,-54.221 c -0.755,-3.056 -0.567,-6.269 0.538,-9.217 l 9.366,-24.975 c 2.663,-7.104 10.051,-11.261 17.506,-9.851 l 87.277,16.505 c 6.364,1.203 11.322,6.213 12.459,12.589 l 6.546,36.708 c 0.885,4.96 5.2,8.573 10.24,8.573 h 17.624"
             style="fill:none;stroke:#000000;stroke-width:15;stroke-linecap:round;stroke-linejoin:round;stroke-miterlimit:10;stroke-dasharray:none;stroke-opacity:1"
             id="path6300" /></g><g
           id="g6302"
           transform="translate(342.5322,399.5234)"><path
             d="m 0,0 h 17.581 c 5.04,0 9.355,-3.613 10.239,-8.574 l 6.546,-36.707 c 1.138,-6.376 6.096,-11.386 12.46,-12.59 l 87.277,-16.504 c 7.455,-1.41 14.842,2.747 17.505,9.851 l 9.367,24.975 c 1.105,2.947 1.293,6.161 0.538,9.217 l -13.388,54.221 c -3.874,15.692 -16.472,27.728 -32.324,30.884 L 53.396,67.197 C 7.318,76.372 -39.55,80.992 -86.532,80.992 c -44.44,0 -88.778,-4.134 -132.441,-12.345"
             style="fill:none;stroke:#000000;stroke-width:15;stroke-linecap:round;stroke-linejoin:round;stroke-miterlimit:10;stroke-dasharray:none;stroke-opacity:1"
             id="path6304" /></g><g
           id="g6306"
           transform="translate(211.9785,399.5234)"><path
             d="M 0,0 H 88.106"
             style="fill:none;stroke:#000000;stroke-width:15;stroke-linecap:round;stroke-linejoin:round;stroke-miterlimit:10;stroke-dasharray:none;stroke-opacity:1"
             id="path6308" /></g><g
           id="g6310"
           transform="translate(8.5,365.5)"><path
             d="M 0,0 130.517,24.801"
             style="fill:none;stroke:#000000;stroke-width:15;stroke-linecap:round;stroke-linejoin:round;stroke-miterlimit:10;stroke-dasharray:none;stroke-opacity:1"
             id="path6312" /></g><g
           id="g6314"
           transform="translate(372.9834,390.3008)"><path
             d="M 0,0 130.517,-24.801"
             style="fill:none;stroke:#000000;stroke-width:15;stroke-linecap:round;stroke-linejoin:round;stroke-miterlimit:10;stroke-dasharray:none;stroke-opacity:1"
             id="path6316" /></g><g
           id="g6318"
           transform="translate(413.418,213.8984)"><path
             d="m 0,0 34.741,-85.509 c 0.76,-1.868 1.15,-3.866 1.15,-5.883 v -75.393 c 0,-8.632 -6.997,-15.629 -15.629,-15.629 H -99.481"
             style="fill:none;stroke:#000000;stroke-width:15;stroke-linecap:round;stroke-linejoin:round;stroke-miterlimit:10;stroke-dasharray:none;stroke-opacity:1"
             id="path6320" /></g><g
           id="g6322"
           transform="translate(278.9365,31.4849)"><path
             d="m 0,0 h -200.616 c -8.632,0 -15.629,6.997 -15.629,15.629 v 75.393 c 0,2.017 0.39,4.015 1.149,5.883 l 75.86,186.713 c 2.393,5.892 8.119,9.746 14.479,9.746 H 78.884 c 6.36,0 12.086,-3.854 14.479,-9.746 l 27.968,-68.838"
             style="fill:none;stroke:#000000;stroke-width:15;stroke-linecap:round;stroke-linejoin:round;stroke-miterlimit:10;stroke-dasharray:none;stroke-opacity:1"
             id="path6324" /></g><g
           id="g6326"
           transform="translate(146.5215,185.1895)"><path
             d="m 0,0 c -0.146,-2.322 -0.222,-4.664 -0.222,-7.022 0,-60.586 49.115,-109.701 109.701,-109.701 60.585,0 109.7,49.115 109.7,109.701 0,60.585 -49.115,109.699 -109.7,109.699 -46.004,0 -85.394,-28.318 -101.69,-68.473"
             style="fill:none;stroke:#000000;stroke-width:15;stroke-linecap:round;stroke-linejoin:round;stroke-miterlimit:10;stroke-dasharray:none;stroke-opacity:1"
             id="path6328" /></g><g
           id="g6330"
           transform="translate(274.2832,178.167)"><path
             d="m 0,0 c 0,10.097 -8.186,18.283 -18.283,18.283 -10.098,0 -18.283,-8.186 -18.283,-18.283 0,-10.098 8.185,-18.284 18.283,-18.284 C -8.186,-18.284 0,-10.098 0,0 Z"
             style="fill:none;stroke:#000000;stroke-width:15;stroke-linecap:round;stroke-linejoin:round;stroke-miterlimit:10;stroke-dasharray:none;stroke-opacity:1"
             id="path6332" /></g><g
           id="g6334"
           transform="translate(270.627,241.897)"><path
             d="m 0,0 c 0,8.078 -6.549,14.627 -14.627,14.627 -8.078,0 -14.627,-6.549 -14.627,-14.627 0,-8.078 6.549,-14.626 14.627,-14.626 C -6.549,-14.626 0,-8.078 0,0 Z"
             style="fill:none;stroke:#000000;stroke-width:15;stroke-linecap:round;stroke-linejoin:round;stroke-miterlimit:10;stroke-dasharray:none;stroke-opacity:1"
             id="path6336" /></g><g
           id="g6338"
           transform="translate(208.1211,222.6992)"><path
             d="m 0,0 c -6.996,4.039 -15.941,1.642 -19.98,-5.354 -4.04,-6.996 -1.642,-15.941 5.353,-19.98 6.996,-4.04 15.941,-1.643 19.981,5.354 C 9.393,-12.985 6.996,-4.039 0,0 Z"
             style="fill:none;stroke:#000000;stroke-width:15;stroke-linecap:round;stroke-linejoin:round;stroke-miterlimit:10;stroke-dasharray:none;stroke-opacity:1"
             id="path6340" /></g><g
           id="g6342"
           transform="translate(193.4941,158.9687)"><path
             d="m 0,0 c -6.995,-4.039 -9.393,-12.985 -5.354,-19.98 4.04,-6.996 12.985,-9.393 19.981,-5.354 6.996,4.039 9.393,12.984 5.353,19.98 C 15.941,1.642 6.996,4.039 0,0 Z"
             style="fill:none;stroke:#000000;stroke-width:15;stroke-linecap:round;stroke-linejoin:round;stroke-miterlimit:10;stroke-dasharray:none;stroke-opacity:1"
             id="path6344" /></g><g
           id="g6346"
           transform="translate(241.373,114.4365)"><path
             d="m 0,0 c 0,-8.078 6.549,-14.627 14.627,-14.627 8.078,0 14.627,6.549 14.627,14.627 0,8.078 -6.549,14.626 -14.627,14.626 C 6.549,14.626 0,8.078 0,0 Z"
             style="fill:none;stroke:#000000;stroke-width:15;stroke-linecap:round;stroke-linejoin:round;stroke-miterlimit:10;stroke-dasharray:none;stroke-opacity:1"
             id="path6348" /></g><g
           id="g6350"
           transform="translate(303.8789,133.6348)"><path
             d="m 0,0 c 6.996,-4.039 15.941,-1.642 19.98,5.354 4.04,6.995 1.642,15.941 -5.353,19.98 C 7.631,29.373 -1.314,26.976 -5.354,19.98 -9.393,12.984 -6.996,4.039 0,0 Z"
             style="fill:none;stroke:#000000;stroke-width:15;stroke-linecap:round;stroke-linejoin:round;stroke-miterlimit:10;stroke-dasharray:none;stroke-opacity:1"
             id="path6352" /></g><g
           id="g6354"
           transform="translate(318.5059,197.3647)"><path
             d="M 0,0 C 6.995,4.039 9.393,12.985 5.354,19.98 1.314,26.977 -7.631,29.374 -14.627,25.334 -21.623,21.295 -24.02,12.35 -19.98,5.354 -15.941,-1.642 -6.996,-4.039 0,0 Z"
             style="fill:none;stroke:#000000;stroke-width:15;stroke-linecap:round;stroke-linejoin:round;stroke-miterlimit:10;stroke-dasharray:none;stroke-opacity:1"
             id="path6356" /></g><g
           id="g6358"
           transform="translate(95.6006,74.3672)"><path
             d="M 0,0 H 43.908"
             style="fill:none;stroke:#000000;stroke-width:15;stroke-linecap:round;stroke-linejoin:round;stroke-miterlimit:10;stroke-dasharray:none;stroke-opacity:1"
             id="path6360" /></g><g
           id="g6362"
           transform="translate(342.1924,325.2764)"><path
             d="m 0,0 v 85.281 c 0,4.594 -3.725,8.32 -8.319,8.32 H -33.47 c -4.595,0 -8.32,-3.726 -8.32,-8.32 V 50.728 c 0,-4.595 -3.725,-8.32 -8.32,-8.32 h -72.164 c -4.596,0 -8.321,3.725 -8.321,8.32 v 34.553 c 0,4.594 -3.724,8.32 -8.32,8.32 h -25.15 c -4.595,0 -8.32,-3.726 -8.32,-8.32 V -0.106"
             style="fill:none;stroke:#000000;stroke-width:15;stroke-linecap:round;stroke-linejoin:round;stroke-miterlimit:10;stroke-dasharray:none;stroke-opacity:1"
             id="path6364" /></g></g></g></g></svg>
